<svg xmlns="http://www.w3.org/2000/svg" viewBox="0 0 500 500"><g id="freepik--background-complete--inject-77"><path d="M238.4,337.8H45.3a5.71,5.71,0,0,1-5.71-5.71V60.66A5.71,5.71,0,0,1,45.3,55H238.4a5.71,5.71,0,0,1,5.71,5.71V332.09A5.71,5.71,0,0,1,238.4,337.8ZM45.3,55.2a5.47,5.47,0,0,0-5.46,5.46V332.09a5.47,5.47,0,0,0,5.46,5.46H238.4a5.47,5.47,0,0,0,5.46-5.46V60.66a5.47,5.47,0,0,0-5.46-5.46Z" style="fill:#ebebeb"></path><path d="M454.7,337.8H261.6a5.71,5.71,0,0,1-5.71-5.71V60.66A5.71,5.71,0,0,1,261.6,55H454.7a5.71,5.71,0,0,1,5.71,5.71V332.09A5.71,5.71,0,0,1,454.7,337.8ZM261.6,55.2a5.47,5.47,0,0,0-5.46,5.46V332.09a5.47,5.47,0,0,0,5.46,5.46H454.7a5.47,5.47,0,0,0,5.46-5.46V60.66a5.47,5.47,0,0,0-5.46-5.46Z" style="fill:#ebebeb"></path><rect x="416.78" y="398.49" width="33.12" height="0.25" style="fill:#ebebeb"></rect><rect x="322.53" y="401.21" width="8.69" height="0.25" style="fill:#ebebeb"></rect><rect x="396.59" y="389.21" width="19.19" height="0.25" style="fill:#ebebeb"></rect><rect x="52.46" y="390.89" width="43.19" height="0.25" style="fill:#ebebeb"></rect><rect x="104.56" y="390.89" width="6.33" height="0.25" style="fill:#ebebeb"></rect><rect y="382.4" width="500" height="0.25" style="fill:#ebebeb"></rect><path d="M395.28,244.46h0c-.06-.82-.15-.77,0-.17-.1-.3-.07.65.06,2.67C395.34,245.76,395.31,245,395.28,244.46Zm-90,75c.7.86,1.54,4.86,2.49,4C307.09,322.58,306.25,318.62,305.28,319.48Zm-234.38,28-.09-1.77A1.5,1.5,0,0,0,70.9,347.51Z" style="fill:#e6e6e6"></path><path d="M435.78,382.26h2.32v0Z" style="fill:#f5f5f5"></path><path d="M300.75,359.88c-1.74,2.73-3.51,5.52-5.41,8.57.12-.32,2.2-5.85,4.35-14C300.08,356.27,300.44,358.07,300.75,359.88Z" style="fill:#fafafa"></path><path d="M303.78,355.09c-.81,4.26-1.47,8.52-1.91,12.78-.29-2.67-.66-5.34-1.12-8C301.76,358.28,302.77,356.7,303.78,355.09Z" style="fill:#fafafa"></path><path d="M423.69,382.29l12.09,0c-4,.05-8.22.16-12.09.18Z" style="fill:#f5f5f5"></path><path d="M451.38,298.53q0-3.31-.15-6.62A56.23,56.23,0,0,1,451.38,298.53Z" style="fill:#f5f5f5"></path><path d="M319.83,339.2H293.45l13.87-130.45c.58-5.52,4.94-10,9.72-10H432.16L415.28,339.2Z" style="fill:#f0f0f0"></path><path d="M314,328H270.4l-2.89-38.07-.61-8.17h0l-.29-3.76a23.54,23.54,0,0,0-.42-2.95c-.05-.21-.11-.43-.16-.65a1.93,1.93,0,0,0-.13-.47,22.48,22.48,0,0,0-20.23-15.78h41c.45,0,.89,0,1.34,0a22.47,22.47,0,0,1,21.48,15.81,1.93,1.93,0,0,1,.13.47,21.12,21.12,0,0,1,.58,3.6l.29,3.76h0Z" style="fill:#e6e6e6"></path><path d="M403.51,339.2h26.38l13.87-130.45c.59-5.52-2.81-10-7.59-10H427.1c-4.78,0-9.14,4.47-9.72,10Z" style="fill:#e6e6e6"></path><path d="M354.3,298h15.86c3.85,0,7,3.61,7,8.06V319.9c0,4.45-3.13,8.06-7,8.06H354.3Z" style="fill:#e6e6e6"></path><rect x="270.4" y="297.96" width="90.33" height="30" rx="5.42" transform="translate(631.13 625.92) rotate(180)" style="fill:#fafafa"></rect><path d="M454.27,280.55a22.51,22.51,0,0,1-18.66,22.18l-4.1,54.1c-.35,4.6-3.69,8.13-7.68,8.13H380.27c4,0,7.33-3.53,7.69-8.13L390.14,328l1.91-25.22a22.45,22.45,0,0,0,16.14-11.84c.21-.39.4-.81.58-1.22a22.22,22.22,0,0,0,1.94-9.12,23.13,23.13,0,0,0-.47-4.59c-.12-.6-.27-1.2-.44-1.78a22.56,22.56,0,0,0-3.74-7.32v0a22.49,22.49,0,0,0-17.83-8.78h43.55a22.49,22.49,0,0,1,6.65,1,23.57,23.57,0,0,1,3.41,1.37,22.59,22.59,0,0,1,7.78,6.41v0A22.42,22.42,0,0,1,454.27,280.55Z" style="fill:#e6e6e6"></path><path d="M410.71,280.55a22.48,22.48,0,0,1-18.66,22.17L388,356.83c-.36,4.61-3.69,8.13-7.7,8.13H252c-4,0-7.33-3.52-7.69-8.13l-4.1-54.19a22.49,22.49,0,1,1,25.74-28.77,2.59,2.59,0,0,1,.12.48,21.87,21.87,0,0,1,.58,3.59l.29,3.76h0L270.39,328h91.44l3.78-50c.55-7.07,4.34-12.95,9.61-15.74a22.14,22.14,0,0,1,11.65-4.09,11.91,11.91,0,0,1,1.34-.06,22,22,0,0,1,9.78,2.26c.1,0,.18.08.28.12a22.63,22.63,0,0,1,7.79,6.42h0A22.45,22.45,0,0,1,410.71,280.55Z" style="fill:#f5f5f5"></path><circle cx="385.57" cy="280.24" r="8.34" style="opacity:0.1"></circle><circle cx="243.81" cy="280.24" r="8.34" style="opacity:0.1"></circle><path d="M416.87,381.82h1.48a1.69,1.69,0,0,0,1.58-1.5L422.11,365h-9l2.19,15.36A1.67,1.67,0,0,0,416.87,381.82Z" style="fill:#e6e6e6"></path><path d="M257.46,381.82h1.48a1.69,1.69,0,0,0,1.58-1.5L262.7,365h-9l2.19,15.36A1.67,1.67,0,0,0,257.46,381.82Z" style="fill:#e6e6e6"></path><path d="M303.53,381.82H305a1.69,1.69,0,0,0,1.58-1.5L308.78,365h-9L302,380.32A1.69,1.69,0,0,0,303.53,381.82Z" style="fill:#e6e6e6"></path><path d="M371.89,381.82h1.49a1.69,1.69,0,0,0,1.58-1.5L377.14,365h-9l2.18,15.36A1.69,1.69,0,0,0,371.89,381.82Z" style="fill:#e6e6e6"></path><path d="M91.31,169.52c0,1.85-2.22,3.35-5,3.35s-5-1.5-5-3.35,2.22-3.36,5-3.36S91.31,167.66,91.31,169.52Z" style="fill:#e6e6e6"></path><path d="M88,359.48H84.65V96.32a1.68,1.68,0,0,1,1.67-1.68h0A1.68,1.68,0,0,1,88,96.32Z" style="fill:#e6e6e6"></path><polygon points="87.9 210.26 84.77 210.26 82.13 171.13 90.54 171.13 87.9 210.26" style="fill:#e6e6e6"></polygon><rect x="83.01" y="161.31" width="6.68" height="6.68" style="fill:#e6e6e6"></rect><polygon points="98.67 382.51 74 382.51 74.1 382.3 98.56 382.3 98.67 382.51" style="fill:#e6e6e6"></polygon><path d="M103.39,374.5v7.8H69.5v-7.8h0A12.64,12.64,0,0,0,81,367.09l4.2-9.25h2.25l4.2,9.25a12.64,12.64,0,0,0,11.5,7.41Z" style="fill:#e6e6e6"></path><path d="M127.15,139.3h0a542.37,542.37,0,0,1-81.42,0h0l10.74-39.24h0a146.88,146.88,0,0,1,59.94,0h0Z" style="fill:#f5f5f5"></path><path d="M425.52,122.22a129.61,129.61,0,0,1,1.3,20.38c0,8.72-.49,16.32-1.24,20.39a3.4,3.4,0,0,1,1.13.74c1.32,1.32,0,4.79,0,4.79s-3.46,1.33-4.79,0c-.28-.29-.31-.78-.65-.95-2.84-1.4-8.24,1.1-14.08,1.11s-11.24-2.47-14.08-1.07c-1.13.56-1.69,1.94-3,1.94s-1.92-1.37-3.06-1.93c-2.83-1.4-8.24,1.1-14.07,1.11s-11.25-2.48-14.08-1.07c-.34.17-.37.67-.65,1-1.32,1.32-4.79,0-4.79,0s-1.33-3.46,0-4.78c.33-.34.92-.36,1.13-.75,2-3.63-1.29-11.67-1.3-20.38s3.23-16.76,1.24-20.39c-.21-.38-.8-.41-1.13-.74-1.32-1.32,0-4.79,0-4.79s3.47-1.33,4.79,0c.29.29.32.79.66,1,2.83,1.4,8.24-1.1,14.07-1.11s11.25,2.47,14.08,1.07c1.14-.56,1.7-1.94,3.05-1.94s1.92,1.37,3.05,1.93c2.84,1.4,8.24-1.1,14.08-1.11s11.24,2.48,14.08,1.07c.34-.16.37-.66.65-1,1.32-1.32,4.79,0,4.79,0s1.33,3.46,0,4.78A3.16,3.16,0,0,1,425.52,122.22Z" style="fill:#e0e0e0"></path><path d="M425.52,120.55a129.42,129.42,0,0,1,1.3,20.38c0,8.71-.49,16.32-1.24,20.38a3.6,3.6,0,0,1,1.13.75c1.32,1.32,0,4.79,0,4.79s-3.46,1.32-4.79,0c-.28-.28-.31-.78-.65-.95-2.84-1.39-8.24,1.11-14.08,1.12S396,164.54,393.11,166c-1.13.56-1.69,1.94-3,1.94s-1.92-1.38-3.06-1.94c-2.83-1.39-8.24,1.11-14.07,1.12s-11.25-2.48-14.08-1.08c-.34.17-.37.67-.65.95-1.32,1.33-4.79,0-4.79,0s-1.33-3.46,0-4.79c.33-.33.92-.36,1.13-.75,2-3.62-1.29-11.66-1.3-20.38s3.23-16.76,1.24-20.38c-.21-.39-.8-.41-1.13-.74-1.32-1.32,0-4.79,0-4.79s3.47-1.33,4.79,0c.29.28.32.78.66,1,2.83,1.39,8.24-1.11,14.07-1.12s11.25,2.48,14.08,1.08c1.14-.56,1.7-2,3.05-2s1.92,1.38,3.05,1.94c2.84,1.39,8.24-1.11,14.08-1.12s11.24,2.48,14.08,1.08c.34-.17.37-.67.65-1,1.32-1.33,4.79,0,4.79,0s1.33,3.47,0,4.79A3.45,3.45,0,0,1,425.52,120.55Z" style="fill:#ebebeb"></path><polygon points="421.81 141.47 390.73 162.23 390.09 162.66 389.44 162.23 358.36 141.47 389.44 122.29 390.09 121.89 390.73 122.29 421.81 141.47" style="fill:#fafafa"></polygon><polygon points="390.03 122.43 390.03 123.23 389.38 122.83 390.03 122.43" style="fill:#fafafa"></polygon><polygon points="389.38 163.59 390.03 163.17 390.03 164.03 389.38 163.59" style="fill:#fafafa"></polygon><polygon points="389.38 122.83 388.74 123.23 388.74 122.43 389.38 122.83" style="fill:#fafafa"></polygon><polygon points="388.74 163.17 389.38 163.59 388.74 164.03 388.74 163.17" style="fill:#fafafa"></polygon></g><g id="freepik--Plant--inject-77"><path d="M392,351.31l-17.87,1.38s3-22.32-.74-24.8c-4.61-3.05-6.54.88-7.07,7.84s-.1,25.61,4.54,25.09S392,362.21,392,362.21Z" style="fill:#FFC100"></path><path d="M392,351.31l-17.87,1.38s3-22.32-.74-24.8c-4.61-3.05-6.54.88-7.07,7.84s-.1,25.61,4.54,25.09S392,362.21,392,362.21Z" style="fill:#fff;opacity:0.5"></path><path d="M399.22,299l20.69,1.6s-3.49-25.84.86-28.72c5.34-3.53,7.58,1,8.2,9.09s.11,29.65-5.27,29.05-24.48,1.6-24.48,1.6Z" style="fill:#FFC100"></path><path d="M399.22,299l20.69,1.6s-3.49-25.84.86-28.72c5.34-3.53,7.58,1,8.2,9.09s.11,29.65-5.27,29.05-24.48,1.6-24.48,1.6Z" style="fill:#fff;opacity:0.5"></path><path d="M401.56,381.63c-.75-1.52,3.31-135.22,3.31-135.22s-.87-18.3-14.28-19.68c-6.7-.69-10.76,4.47-13.14,9.81A32.65,32.65,0,0,0,374.9,253L384,381.63Z" style="fill:#FFC100"></path><path d="M401.56,381.63c-.75-1.52,3.31-135.22,3.31-135.22s-.87-18.3-14.28-19.68c-6.7-.69-10.76,4.47-13.14,9.81A32.65,32.65,0,0,0,374.9,253L384,381.63Z" style="fill:#fff;opacity:0.5"></path><g style="opacity:0.2"><path d="M399,380.28q.69-54.27,1.39-108.56c.19-14.56.16-30-7.29-42.49a116.88,116.88,0,0,1,4.7,21.07c.85,6.63.5,13.09.64,19.75.33,15.19-.9,93.25-.76,103.09a23.78,23.78,0,0,0,1,7.76Z"></path></g><g style="opacity:0.2"><path d="M385.43,380.1c-1.48-36.16-4.16-71.39-5.63-107.55-.6-14.55-1-30,6.09-42.68a116.7,116.7,0,0,0-4.11,21.19c-.65,6.66-.13,13.11-.09,19.76.1,15.2,4.72,92.26,4.86,102.1a23.85,23.85,0,0,1-.75,7.78Z"></path></g><path d="M396.3,234.66a.28.28,0,0,1-.12,0c-.12-.05-.17-.08-.08-.32h0l.14-.26h0c.11-.24.29-.59.57-1.11l3.83-7.33.45.23-4.42,8.43-.1.2h0l0,.06h0A.26.26,0,0,1,396.3,234.66Z" style="fill:#fff"></path><path d="M385,229.79a20.92,20.92,0,0,1-1.12-4.75l.5-.06a20.48,20.48,0,0,0,1.09,4.64Z" style="fill:#fff"></path><path d="M374,252.47a5.46,5.46,0,0,1-2.07-.41l.19-.46a4.9,4.9,0,0,0,3.74,0l.19.47A5.35,5.35,0,0,1,374,252.47Z" style="fill:#fff"></path><path d="M405.4,255.9a7.52,7.52,0,0,1-1.77-.21l.12-.49a6.87,6.87,0,0,0,4.27-.32l.19.46A7.34,7.34,0,0,1,405.4,255.9Z" style="fill:#fff"></path><path d="M377.34,239.92a20.27,20.27,0,0,1-2.95-2.76l.38-.33a18.82,18.82,0,0,0,2.88,2.69Z" style="fill:#fff"></path><path d="M403.22,239.12l-.42-.27a2.62,2.62,0,0,1,2.68-1.1l-.11.49A2.13,2.13,0,0,0,403.22,239.12Z" style="fill:#fff"></path><path d="M375.41,290.39l-.19-.46a23.24,23.24,0,0,0,5.07-2.93l.31.39A23.54,23.54,0,0,1,375.41,290.39Z" style="fill:#fff"></path><path d="M404.16,295.3a5.4,5.4,0,0,1-3.07-1.56l.36-.35a4.93,4.93,0,0,0,2.79,1.42Z" style="fill:#fff"></path><rect x="399.07" y="338.02" width="0.5" height="5.58" transform="translate(-115.34 444.44) rotate(-51.86)" style="fill:#fff"></rect><path d="M379.05,348.93l-.39-.33a3.8,3.8,0,0,1,3.57-1.27l-.09.49A3.32,3.32,0,0,0,379.05,348.93Z" style="fill:#fff"></path><path d="M390.2,322.92a8.83,8.83,0,0,1-2.82-1.17l.27-.42a8.28,8.28,0,0,0,2.66,1.1Z" style="fill:#fff"></path><rect x="375.54" y="317.31" width="4.68" height="0.5" transform="translate(-35.16 47.32) rotate(-6.85)" style="fill:#fff"></rect><rect x="394.65" y="308.01" width="1.71" height="0.5" style="fill:#fff"></rect><path d="M384.12,307.79a2.75,2.75,0,0,1-1.61-.56l.3-.4a2.18,2.18,0,0,0,1.32.46Z" style="fill:#fff"></path><rect x="396.82" y="331.1" width="0.77" height="0.5" transform="translate(-84.4 142.61) rotate(-18.43)" style="fill:#fff"></rect><rect x="379.45" y="334.66" width="3.27" height="0.5" transform="translate(-66.95 96.89) rotate(-13.33)" style="fill:#fff"></rect><polygon points="399.63 273.47 398.37 272.53 398.67 272.13 399.93 273.07 399.63 273.47" style="fill:#fff"></polygon><rect x="376.28" y="269.46" width="2.7" height="0.5" transform="translate(-28.16 44.58) rotate(-6.51)" style="fill:#fff"></rect><rect x="396.05" y="247.02" width="1.09" height="0.5" transform="translate(-68.71 203.47) rotate(-26.57)" style="fill:#fff"></rect><path d="M391,239.45h-.5a13.31,13.31,0,0,1,.61-4l.48.15A12.68,12.68,0,0,0,391,239.45Z" style="fill:#fff"></path><path d="M384,239.4a7.11,7.11,0,0,1-1.56-2l.44-.23a6.77,6.77,0,0,0,1.45,1.87Z" style="fill:#fff"></path><path d="M381.44,248.06a.84.84,0,0,1-.72-.4l.43-.25a.32.32,0,0,0,.4.12l.22.45A.76.76,0,0,1,381.44,248.06Z" style="fill:#fff"></path><rect x="386.89" y="259.19" width="2.11" height="0.5" transform="translate(-78.06 285.01) rotate(-36.91)" style="fill:#fff"></rect><path d="M374.35,262.26l0-.5a11.75,11.75,0,0,0,2.87-.55l.15.48A12.66,12.66,0,0,1,374.35,262.26Z" style="fill:#fff"></path><rect x="398.46" y="262.48" width="0.5" height="1.91" transform="translate(-76.95 309.44) rotate(-38.98)" style="fill:#fff"></rect><path d="M392.23,272.23a2.26,2.26,0,0,1-.47-2.24l.47.17a1.76,1.76,0,0,0,.36,1.73Z" style="fill:#fff"></path><rect x="381.87" y="265.37" width="1.22" height="0.5" transform="translate(-63.29 400.27) rotate(-51.58)" style="fill:#fff"></rect><path d="M375.29,281.56l-.35-.36a10.67,10.67,0,0,1,2.44-1.83l.24.44A10,10,0,0,0,375.29,281.56Z" style="fill:#fff"></path><rect x="403.46" y="281.58" width="0.5" height="3.64" transform="translate(0.93 568.13) rotate(-70.33)" style="fill:#fff"></rect><path d="M397.53,289.13a1.66,1.66,0,0,1-1.18-1.71l.5.05a1.16,1.16,0,0,0,.82,1.18Z" style="fill:#fff"></path><path d="M380.44,285.14l-.43-.26a2.93,2.93,0,0,1,1.85-1.35l.11.49A2.42,2.42,0,0,0,380.44,285.14Z" style="fill:#fff"></path><path d="M389.48,296.7a.85.85,0,0,1-.43-1.39l.35.36a.32.32,0,0,0,0,.31.34.34,0,0,0,.22.23Z" style="fill:#fff"></path><rect x="389.25" y="285.61" width="0.77" height="0.5" transform="translate(-4.77 565.1) rotate(-71.57)" style="fill:#fff"></rect><path d="M376.84,297.42l-.43-.25a3.22,3.22,0,0,1,2-1.48l.11.49A2.7,2.7,0,0,0,376.84,297.42Z" style="fill:#fff"></path><path d="M427.59,278.37l-.25-.44a11.27,11.27,0,0,0,3.32-2.9l.4.3A12,12,0,0,1,427.59,278.37Z" style="fill:#fff"></path><rect x="423.79" y="268.84" width="0.5" height="2.69" style="fill:#fff"></rect><path d="M420.67,275.35a8.89,8.89,0,0,1-3.34-2.77l.4-.29a8.57,8.57,0,0,0,3.15,2.61Z" style="fill:#fff"></path><rect x="421.08" y="282.2" width="0.55" height="0.5" transform="translate(-81.94 219.13) rotate(-26.67)" style="fill:#fff"></rect><rect x="416.69" y="281.08" width="2.2" height="0.5" style="fill:#fff"></rect><path d="M429.51,287.17a5.43,5.43,0,0,0-2.09-1l.11-.48a5.88,5.88,0,0,1,2.28,1.06Z" style="fill:#fff"></path><path d="M427.4,297.78a1.19,1.19,0,0,0-1-1l.08-.5a1.7,1.7,0,0,1,1.37,1.4Z" style="fill:#fff"></path><path d="M421.41,293.35l-.12-.49a2.06,2.06,0,0,0,1.07-.69l.39.32A2.6,2.6,0,0,1,421.41,293.35Z" style="fill:#fff"></path><rect x="416.94" y="287.93" width="1.71" height="0.5" style="fill:#fff"></rect><path d="M418.79,298.59l-.38-.33a1.79,1.79,0,0,1,2-.46l-.2.46A1.26,1.26,0,0,0,418.79,298.59Z" style="fill:#fff"></path><path d="M426.68,307.48a2.91,2.91,0,0,1-1.68-1.26l.42-.26a2.46,2.46,0,0,0,1.39,1Z" style="fill:#fff"></path><path d="M417.93,311.82a4.5,4.5,0,0,1-.48-3.11l.49.1a4,4,0,0,0,.42,2.77Z" style="fill:#fff"></path><polygon points="408.04 311.73 407.55 311.61 408.17 309.19 408.65 309.31 408.04 311.73" style="fill:#fff"></polygon><path d="M410.08,301.17a7.32,7.32,0,0,1,.41-2.82l.47.17a6.7,6.7,0,0,0-.38,2.63Z" style="fill:#fff"></path><rect x="416.93" y="304.49" width="1.01" height="0.5" transform="translate(-64.52 118.09) rotate(-14.96)" style="fill:#fff"></rect><rect x="404.44" y="303.75" width="0.5" height="1.49" transform="matrix(0.17, -0.98, 0.98, 0.17, 34.49, 650.1)" style="fill:#fff"></rect><path d="M412.71,308.49a.63.63,0,0,1-.37-.31.6.6,0,0,1,0-.49l.47.17a.1.1,0,0,0,0,.09l.06.06Z" style="fill:#fff"></path><path d="M403.26,318.6a13.56,13.56,0,0,1-2.54-.23l.09-.49a13.44,13.44,0,0,0,3.85.15l.06.5A14.41,14.41,0,0,1,403.26,318.6Z" style="fill:#fff"></path><path d="M379.32,327.09h-.11l0-.5a1.14,1.14,0,0,0,1-.55l.43.25A1.63,1.63,0,0,1,379.32,327.09Z" style="fill:#fff"></path><path d="M404.82,330.42a5.73,5.73,0,0,0-3.57-1.53l0-.5a6.3,6.3,0,0,1,3.9,1.67Z" style="fill:#fff"></path><rect x="388.13" y="342.07" width="1.57" height="0.5" transform="matrix(0.78, -0.62, 0.62, 0.78, -128.62, 317.97)" style="fill:#fff"></rect><path d="M403.41,360.91a14,14,0,0,0-4.4-3.58l.23-.44a14.22,14.22,0,0,1,4.55,3.71Z" style="fill:#fff"></path><rect x="385.76" y="358.05" width="2.09" height="0.5" transform="translate(-105.61 169.82) rotate(-21.86)" style="fill:#fff"></rect><path d="M373,361.61l-.28-.42A12.17,12.17,0,0,0,375.3,359l.38.33A13.1,13.1,0,0,1,373,361.61Z" style="fill:#fff"></path><rect x="366" y="335.15" width="0.5" height="2.5" transform="translate(-30.56 636.15) rotate(-79.64)" style="fill:#fff"></rect><path d="M369.66,328.13l-.5-.08a2.46,2.46,0,0,0-.83-2.25l.32-.38A3,3,0,0,1,369.66,328.13Z" style="fill:#fff"></path><path d="M374.38,333.88l-.16-.47a2.48,2.48,0,0,0,1.63-1.91l.5.07A3,3,0,0,1,374.38,333.88Z" style="fill:#fff"></path><path d="M364.63,352.74l-.26-.43a7.94,7.94,0,0,1,2.56-1l.1.49A7.34,7.34,0,0,0,364.63,352.74Z" style="fill:#fff"></path><path d="M377.9,353.09l-.5,0a3,3,0,0,0-.4-1.55l.43-.26A3.47,3.47,0,0,1,377.9,353.09Z" style="fill:#fff"></path><path d="M374.17,344.73l-.17-.47a4.32,4.32,0,0,0,1.89-1.35l.39.31A4.76,4.76,0,0,1,374.17,344.73Z" style="fill:#fff"></path><path d="M365.77,347a.77.77,0,0,1-.36-.09l.23-.44a.33.33,0,0,0,.41-.12l.43.26A.83.83,0,0,1,365.77,347Z" style="fill:#fff"></path><rect x="370.65" y="340.58" width="0.5" height="0.49" style="fill:#fff"></rect><rect x="372.85" y="348.54" width="0.5" height="1.97" transform="translate(-31.72 661.76) rotate(-80.77)" style="fill:#fff"></rect><polygon points="367.41 359.35 367.03 359.02 368.3 357.59 368.67 357.92 367.41 359.35" style="fill:#fff"></polygon><rect x="379.74" y="356.86" width="0.24" height="0.5" style="fill:#fff"></rect><rect x="376.37" y="305.19" width="2.52" height="0.5" transform="translate(-100.83 221.92) rotate(-29.07)" style="fill:#fff"></rect><rect x="390.76" y="225.62" width="1.72" height="0.5" transform="translate(82.94 556.18) rotate(-76.91)" style="fill:#fff"></rect><path d="M378.53,232.9a2.08,2.08,0,0,0-.69-1.07l.31-.39a2.48,2.48,0,0,1,.86,1.33Z" style="fill:#fff"></path><rect x="394.65" y="351.6" width="2.45" height="0.5" style="fill:#fff"></rect><path d="M389.71,244.34s3.36-1.41,3.47-2.47c.16-1.53-2.65-4.74-4.18-4.54-1.27.16-2.4,4.54-2.4,4.54s-1.12-4.4-2.39-4.54c-1.69-.2-4.69,3.46-4.45,5.15.14,1,3.34,2.15,3.34,2.15s-3.5.05-4,1c-.64,1.29.89,5,2.31,5.3,1.11.21,3.2-3.17,3.2-3.17s-1.91,3.14-1.33,4,4,1.3,4.79.42-.67-4.44-.67-4.44,1.82,3.19,2.89,3.17c1.45,0,4-3,3.74-4.41C393.82,245.29,389.71,244.34,389.71,244.34Z" style="fill:#FFC100"></path><path d="M389.71,244.34s3.36-1.41,3.47-2.47c.16-1.53-2.65-4.74-4.18-4.54-1.27.16-2.4,4.54-2.4,4.54s-1.12-4.4-2.39-4.54c-1.69-.2-4.69,3.46-4.45,5.15.14,1,3.34,2.15,3.34,2.15s-3.5.05-4,1c-.64,1.29.89,5,2.31,5.3,1.11.21,3.2-3.17,3.2-3.17s-1.91,3.14-1.33,4,4,1.3,4.79.42-.67-4.44-.67-4.44,1.82,3.19,2.89,3.17c1.45,0,4-3,3.74-4.41C393.82,245.29,389.71,244.34,389.71,244.34Z" style="fill:#fff;opacity:0.9"></path><path d="M414.33,404c.43-4.73,2.26-18.42,2.26-18.42.84-6.87-.23-14.52-2-14.52H369.27c-1.83,0-2.9,7.65-2,14.52,0,0,1.82,13.69,2.26,18.42Z" style="fill:#263238"></path><g style="opacity:0.5"><path d="M414.33,404c.43-4.73,2.26-18.42,2.26-18.42.84-6.87-.23-14.52-2-14.52H369.27c-1.83,0-2.9,7.65-2,14.52,0,0,1.82,13.69,2.26,18.42Z" style="fill:#fff;opacity:0.4"></path></g></g><g id="freepik--speech-bubbles--inject-77"><polygon points="300.1 83.21 285.53 74.5 284.36 89.79 271.6 91.83 277.26 103.97 267.13 113.68 279.85 119.61 266.47 134.41 290.1 129.61 298.68 141.96 307.7 132.15 318.94 136.98 322.45 126.52 337.43 124.61 329.42 112.83 334.97 102.57 326.11 96.95 329.94 82.12 315.12 85.33 307.42 76.1 300.1 83.21" style="fill:#fff"></polygon><path d="M298.63,142.76l-8.75-12.59-24.8,5L279,119.77l-12.77-6,10.4-10-5.79-12.41,13-2.08,1.2-15.7L300,82.58l7.43-7.22,7.85,9.42,15.32-3.32-3.94,15.26,8.95,5.68L330,112.8l8.31,12.2-15.48,2-3.59,10.67-11.41-4.9Zm-8.31-13.7,8.42,12.1,8.84-9.61,11.06,4.75,3.44-10.24,14.48-1.85-7.73-11.35,5.48-10.12-8.77-5.56,3.72-14.4-14.33,3.11-7.55-9.06-7.21,7L286,75.35l-1.14,14.87-12.5,2,5.54,11.86L268,113.53l12.67,5.91-12.82,14.18Z" style="fill:#FFC100"></path><path d="M303,123.8a2.74,2.74,0,1,1,2.9-2.72A2.77,2.77,0,0,1,303,123.8Zm3.7-29-1,16.23a2.48,2.48,0,0,1-2.49,2.3h0A2.46,2.46,0,0,1,300.8,111l-.67-16.24a3.32,3.32,0,0,1,3.35-3.45h0A3.32,3.32,0,0,1,306.74,94.83Z" style="fill:#FFC100"></path></g><g id="freepik--Lines--inject-77"><path d="M219.94,97.15a.45.45,0,0,1-.2,0,.5.5,0,0,1-.26-.66l2.77-6.19a.5.5,0,0,1,.66-.25.49.49,0,0,1,.25.66l-2.76,6.19A.52.52,0,0,1,219.94,97.15Z" style="fill:#FFC100"></path><path d="M223.63,88.91a.52.52,0,0,1-.21,0,.5.5,0,0,1-.25-.66l1-2.28a.5.5,0,1,1,.91.4l-1,2.29A.49.49,0,0,1,223.63,88.91Z" style="fill:#FFC100"></path><path d="M210.25,96.55a.5.5,0,0,1-.48-.38L206.87,85a.5.5,0,0,1,.35-.61.51.51,0,0,1,.61.36l2.91,11.16a.5.5,0,0,1-.36.61Z" style="fill:#FFC100"></path><path d="M215.06,97.77h0a.51.51,0,0,1-.48-.53l.13-2.13a.5.5,0,1,1,1,.06l-.12,2.13A.5.5,0,0,1,215.06,97.77Z" style="fill:#FFC100"></path><path d="M215.29,93.78h0a.49.49,0,0,1-.46-.53l.41-4.87a.5.5,0,1,1,1,.08l-.4,4.87A.5.5,0,0,1,215.29,93.78Z" style="fill:#FFC100"></path></g><g id="freepik--Character--inject-77"><path d="M217.67,144.82,231,155.54l25,8.34,9.1-22.3-23.68-28.37a13.39,13.39,0,0,0-11.81-1.85l-7.43,2.37a4.82,4.82,0,0,0-2.89,4.1l-3.74,22C215.43,141.56,216.33,144.8,217.67,144.82Z" style="fill:#ff8b7b"></path><path d="M247.56,160.14c-.77-.06-13.17,4.84-20.15,5-2.48.06-5-.35-6.33-1.85a1.77,1.77,0,0,1,.68-2.79l13.86-5.76Z" style="fill:#ff8b7b"></path><path d="M221.27,261.68S321.51,250,348.6,220.77c7.31-7.48,7.27-10.59,7.27-10.59,14.48-23-96.13-71-96.13-71l-4.83,24L315.24,208l1.87,1.28a3.48,3.48,0,0,1-2.1-2.12,7.81,7.81,0,0,1-.6-3.67,9.39,9.39,0,0,1,1.23-4,8.42,8.42,0,0,1,2.83-3l2.36-.76L223,209.88Z" style="fill:#ff8b7b"></path><path d="M280.05,193.2,278.76,259c-42.71,10.89-58.78,2.17-67.09-14.18-14-27.45-5.93-51.08,25.21-45.68C253,201.89,280.05,193.2,280.05,193.2Z" style="fill:#FFC100"></path><path d="M280.05,193.2,278.76,259c-42.71,10.89-58.78,2.17-67.09-14.18-14-27.45-5.93-51.08,25.21-45.68C253,201.89,280.05,193.2,280.05,193.2Z" style="fill:#fff;opacity:0.2"></path><g id="freepik--freepik--Character--inject-2--inject-77"><path d="M227.47,198.52c-5.67-.67-22.57-1.29-28.33-1.72-51.64-.41-62.9.52-67.53.93-17.31,1.47-28.15,15.36-23.29,29.84,9.89,70.87,1,79.3,8,177.38H273.17s21.35-42.74,5.45-103.51C265,249.27,255.84,206.9,227.47,198.52Z" style="fill:#FFC100"></path></g><g id="freepik--freepik-character-inject-2--inject-77" style="opacity:0.30000000000000004"><path d="M227.47,198.52c-5.67-.67-22.57-1.29-28.33-1.72-51.64-.41-62.9.52-67.53.93-17.31,1.47-28.15,15.36-23.29,29.84,9.89,70.87,1,79.3,8,177.38H273.17s21.35-42.74,5.45-103.51C265,249.27,255.84,206.9,227.47,198.52Z" style="fill:#fff"></path></g><path d="M190.88,223l7.86,56.54,15.37-1.46-9.4-54.82a53.09,53.09,0,0,1-5.39.38A41.79,41.79,0,0,1,190.88,223Z" style="isolation:isolate;opacity:0.2"></path><path d="M195.48,232.9a3.35,3.35,0,1,0,3.35-3.35A3.35,3.35,0,0,0,195.48,232.9Z" style="fill:#fff"></path><path d="M256.93,251.41c-.27-.63-28.38,1.48-28.38,1.48l9.1,39.76,21.77,6.7s10.37-5,11.41-8.43C273.9,280.91,256.93,251.41,256.93,251.41Z" style="fill:#fff;opacity:0.2"></path><path d="M114.08,295.5s-1.31-44.36-3.68-58.15S145.14,234,145.14,234s-6.09,60.66-31.08,71.38Z" style="isolation:isolate;opacity:0.2"></path><path d="M151.07,199.15c6.79,7.79,22.44,20.82,39.81,23.89a41.79,41.79,0,0,0,8.44.64,53.09,53.09,0,0,0,5.39-.38l.51-.06a21.65,21.65,0,0,0,5.79-1.45c6.49-2.84,3.38-8.39.93-13.69-1.54-3.32-6-8.42-10.73-10.15a54.59,54.59,0,0,1-2.37-10.2c-.79-5.12-1.17-10.66-.34-13.56l-43.18-13.75-9.22-2.93C150.34,174.83,157.5,190.73,151.07,199.15Z" style="fill:#ff8b7b"></path><path d="M135.88,131c6.25,22.55,11,37.74,27.3,45,32.35,14.4,46.81-.87,47.95-24.68,1-21.42-9.36-54.7-35.34-59.55C150.19,87,129.63,108.44,135.88,131Z" style="fill:#ff8b7b"></path><path d="M155.31,160.44c4.29,10.07,9.92,17.36,19.78,21.75,9.38,4.18,17.25,5.86,23.74,5.56-.79-5.12-1.17-10.66-.34-13.56Z" style="isolation:isolate;opacity:0.2"></path><path d="M135.88,131c6.25,22.55,11,37.74,27.3,45,32.35,14.4,46.81-.87,47.95-24.68,1-21.42-9.36-54.7-35.34-59.55C150.19,87,129.63,108.44,135.88,131Z" style="fill:#ff8b7b"></path><polygon points="185.21 148.09 180.39 151.47 181.14 155.37 185.21 148.09" style="opacity:0.2"></polygon><path d="M178.25,128.66c.42,1.89,1.77,3.19,3,2.91s1.9-2.06,1.48-3.95-1.76-3.2-3-2.91S177.83,126.76,178.25,128.66Z" style="fill:#263238"></path><path d="M200.51,123.86c.42,1.89,1.76,3.2,3,2.91s1.9-2,1.48-4-1.77-3.19-3-2.91S200.09,122,200.51,123.86Z" style="fill:#263238"></path><path d="M178.12,133.45s-4.37-2.56-8.32-1.07A21.82,21.82,0,0,0,178.12,133.45Z" style="opacity:0.2"></path><path d="M177.74,135.41s-4.39-1.45-7.55,1A17.82,17.82,0,0,0,177.74,135.41Z" style="opacity:0.2"></path><path d="M196.4,155.69c.14,2.71,1.69,4.83,3.47,4.72s3.1-2.4,3-5.12-1.69-4.83-3.47-4.72S196.26,153,196.4,155.69Z" style="fill:#263238"></path><path d="M160.21,114.37c4.24,5.26,6.42,23.93,2.27,29.26-1.37,1.77-3.13,3.22-4.45,5a13.45,13.45,0,0,0-2.39,9.79,9.8,9.8,0,0,0-10.06-7.29l9.09,20.71c-9.58-3.22-23.1-29.44-25.18-39.33C126.63,118.94,144.49,94.82,160.21,114.37Z" style="fill:#263238"></path><path d="M160.21,114.37c4.24,5.26,6.42,23.93,2.27,29.26-1.37,1.77-3.13,3.22-4.45,5a13.45,13.45,0,0,0-2.39,9.79,9.8,9.8,0,0,0-10.06-7.29l9.09,20.71c-9.58-3.22-23.1-29.44-25.18-39.33C126.63,118.94,144.49,94.82,160.21,114.37Z" style="fill:#fff;opacity:0.6000000000000001"></path><path d="M151.06,165a22.19,22.19,0,0,1-14.39-8.85c-4.14-5.81-2.36-14,5-15.93s14.46,6,17.06,12.07C158.68,152.27,167,167,151.06,165Z" style="fill:#ff8b7b"></path><polygon points="208.57 125.93 196.59 128.39 198.48 133.09 209.69 130.95 208.57 125.93" style="fill:#fff;opacity:0.6000000000000001"></polygon><path d="M192.06,125.74c2.76,4.82,7,6.86,12.11,10.38-2.2,4-7.22,4-7.22,4Z" style="fill:#ff5652"></path><g style="opacity:0.6000000000000001"><polygon points="192.94 129.16 193.56 133.99 178.25 137.28 176.87 132 192.94 129.16" style="fill:#fff;opacity:0.9"></polygon></g><polygon points="197.28 130.12 196.59 128.39 192.94 129.16 193.18 130.99 197.28 130.12" style="fill:#263238"></polygon><path d="M170.12,123.15a1.07,1.07,0,0,1,.89-1c5.23-1.06,7.87-7.19,7.89-7.24a1.13,1.13,0,0,1,1.48-.59,1.12,1.12,0,0,1,.58,1.48c-.12.31-3.26,7.26-9.56,8.55a1.11,1.11,0,0,1-1.33-.86h0Z" style="fill:#263238"></path><path d="M203.66,113.46a1.1,1.1,0,0,1,.7.87,1.12,1.12,0,0,1-.91,1.3h0a11.25,11.25,0,0,1-9.86-3,1.13,1.13,0,0,1,1.67-1.53h0a8.86,8.86,0,0,0,7.82,2.29A1.71,1.71,0,0,1,203.66,113.46Z" style="fill:#263238"></path><path d="M151.06,165c7.66,1.17,10.56-5.9,7.62-12.71" style="fill:#ff8b7b"></path><path d="M199.62,192.1c13.25,3.54,24.41,13.07,28.66,26.12a6.09,6.09,0,0,1,.41,2.79,2.29,2.29,0,0,1-1.77,2,8.4,8.4,0,0,0-6.27-6.76c-3.39,1.78-6.26,3.92-9.65,5.69-1.17-6.77-3-13.76-6.14-19.86-.85-1.63-1.89-3.34-3.62-4C200.5,195.69,200.36,194.52,199.62,192.1Z" style="fill:#263238"></path><path d="M205.33,223.47a21.65,21.65,0,0,0,5.79-1.45c.44-7.23-4.6-16.42-4.6-16.42C207.6,211.9,206.54,218.61,205.33,223.47Z" style="fill:#263238"></path><path d="M148,198.29a8.81,8.81,0,0,1,5.64-8.91c7.09,9.14,18,16,28.94,19.68,5.27,1.79,7.22,9.18,9.06,14.44-5.06-.22-13.24-4.78-14.59-3.7,0,0-7.42,3.84-10.05,6.17C158.8,218.35,148.69,209.44,148,198.29Z" style="fill:#263238"></path><rect x="112.62" y="393.64" width="168.15" height="11.32" rx="3.88" transform="translate(393.4 798.59) rotate(180)" style="fill:#263238"></rect><path d="M118.34,214.92a21.49,21.49,0,0,0-28.92,14.26c-8.54,31.43-21.22,84.69-20.23,98,1.67,22.27,32.12,40.29,71,6.18l50.25-52c-3.94-9.88-14.19-19.63-14.19-19.63S132,287.21,118.07,299.29L134.87,252a29.43,29.43,0,0,0-16.53-37.05Z" style="fill:#ff8b7b"></path><polygon points="188.05 282.8 211.57 272.74 196.1 242.28 173.87 263.16 188.05 282.8" style="fill:#ff8b7b"></polygon><path d="M211.57,272.74l11.4-7.89c1.23-.25,1.81-1.59,1.38-3.17l-5.59-17.86a4.52,4.52,0,0,0-3.39-3.3l-19.27,1.76Z" style="fill:#ff8b7b"></path><path d="M129.68,282.43,72.61,269.66c12-48,31.51-70.39,51.84-70.51,13.11-.09,30.87,18.42,16.12,48.85A129.5,129.5,0,0,0,129.68,282.43Z" style="fill:#FFC100"></path><g style="opacity:0.30000000000000004"><path d="M129.68,282.43,72.61,269.66c12-48,31.51-70.39,51.84-70.51,13.11-.09,30.87,18.42,16.12,48.85A129.5,129.5,0,0,0,129.68,282.43Z" style="fill:#fff"></path></g><polygon points="213.18 161.64 230.52 161.64 231.59 148.09 213.18 148.09 213.18 161.64" style="fill:#263238"></polygon><polygon points="213.18 161.64 230.52 161.64 231.59 148.09 213.18 148.09 213.18 161.64" style="opacity:0.2"></polygon><path d="M223.26,129.37h0a6,6,0,0,0,6.63-5.34l.7-6.49a6,6,0,0,0-5.33-6.63h0a6,6,0,0,0-6.63,5.34l-.7,6.49A6,6,0,0,0,223.26,129.37Z" style="fill:#FFC100"></path><path d="M223.26,129.37h0a6,6,0,0,0,6.63-5.34l.7-6.49a6,6,0,0,0-5.33-6.63h0a6,6,0,0,0-6.63,5.34l-.7,6.49A6,6,0,0,0,223.26,129.37Z" style="opacity:0.30000000000000004"></path><polygon points="212.4 154.87 229.51 156.17 232.71 121.34 215.35 117.15 212.4 154.87" style="fill:#FFC100"></polygon><path d="M202.42,160.26h22.35a4.78,4.78,0,0,0,4.79-4.79h0a4.79,4.79,0,0,0-4.79-4.79H202.42Z" style="fill:#FFC100"></path><path d="M202.42,160.26h22.35a4.78,4.78,0,0,0,4.79-4.79h0a4.79,4.79,0,0,0-4.79-4.79H202.42Z" style="fill:#fff;opacity:0.2"></path><rect x="200.73" y="150.68" width="11.33" height="9.58" transform="translate(412.8 310.94) rotate(180)" style="fill:#FFC100"></rect><rect x="200.73" y="150.68" width="11.33" height="9.58" transform="translate(412.8 310.94) rotate(180)" style="opacity:0.30000000000000004"></rect></g><g id="freepik--Table--inject-77"><rect x="56.11" y="404.37" width="387.78" height="10.97" rx="4.92" style="fill:#263238"></rect><rect x="56.11" y="404.37" width="387.78" height="10.97" rx="4.92" style="fill:#fff;opacity:0.4"></rect></g></svg>