<svg xmlns="http://www.w3.org/2000/svg" viewBox="0 0 862.12 180.22"><g id="Camada_2" data-name="Camada 2"><g id="Camada_1-2" data-name="Camada 1"><path d="M249.78,179a6.51,6.51,0,0,1-5.11-2.4,9,9,0,0,1-2.07-6.07V98.61a43.22,43.22,0,0,1,1.51-11,27.62,27.62,0,0,1,5.75-10.78,30.4,30.4,0,0,1,12.06-8.22q7.83-3.2,20.45-3.2,16.77,0,26,8.31t9.26,24.91a30.07,30.07,0,0,1-2.47,12.3,17.82,17.82,0,0,1-7.43,8.46q7.83,3.52,11.26,9.75t3.43,17.25q0,16-9.82,24.27T282.37,179Zm14.7-62.45q2.07-2.55,6.79-4a38.09,38.09,0,0,1,11.1-1.44q7.5,0,10.3-2.8t2.79-9.66q0-8-3.27-11.42t-9.82-3.43q-9.27,0-13,3.35t-3.75,11.5q0,5-.08,7.91c-.06,2-.16,3.7-.32,5.19S264.8,114.8,264.48,116.5Zm1.12,43.92h16.77q9.57,0,13.33-3.35t3.75-10.7q0-10.38-3.91-14.86T282.37,127q-6.56,0-10.23,1.68a9.48,9.48,0,0,0-5.11,5.83q-1.44,4.15-1.43,11.82Z"/><path d="M376,180.22q-16,0-25-5.27a29.15,29.15,0,0,1-12.78-14.53,56.25,56.25,0,0,1-3.75-21.24q0-22,9.74-31.7t26.2-9.67a43.43,43.43,0,0,1,17.57,3.36,27.76,27.76,0,0,1,12,9.5,25.32,25.32,0,0,1,4.32,14.93q0,25.56-36.42,25.56h-9.26a15.75,15.75,0,0,0,4.23,7.74q3,2.81,10.46,2.8a37.77,37.77,0,0,0,6.71-.48c1.7-.32,3.33-.64,4.87-1a26.56,26.56,0,0,1,5.35-.48A13.43,13.43,0,0,1,397,161.3q2.55,1.51,2.55,6.15a10.29,10.29,0,0,1-5.67,9.66Q388.25,180.23,376,180.22Zm-18.53-40.88A6.2,6.2,0,0,1,360.3,137a16.27,16.27,0,0,1,5-.56q9.42,0,13-1.83t3.6-6.63q0-6.07-3.36-9.34a11.59,11.59,0,0,0-8.46-3.28,10.61,10.61,0,0,0-9.27,5Q357.44,125.28,357.43,139.34Z"/><path d="M452.46,180.22q-14.85,0-22-7t-7.11-21.56V118.42h-4.15q-10.86,0-10.86-9.75,0-9.57,10.86-9.58h4.15V81.84a11.79,11.79,0,0,1,3.28-8.62,11.39,11.39,0,0,1,8.54-3.36A10.86,10.86,0,0,1,443.36,73q3,3.1,3,8.54v7.83a21.68,21.68,0,0,1-1.92,9.74h15.18q10.86,0,10.86,9.58,0,9.75-10.86,9.75H446.39v33.7q0,4.78,1.12,6.78a3.86,3.86,0,0,0,3.67,2,17,17,0,0,0,5-.56,13.69,13.69,0,0,1,4.24-.56,13.39,13.39,0,0,1,6.86,1.52q2.56,1.51,2.56,6.15c0,4.37-1.39,7.58-4.15,9.66S458.53,180.22,452.46,180.22Z"/><path d="M508.68,169.52q0,10.71-11.18,10.7-5.43,0-8.63-2.71t-3.19-8V69.7q0-12.45,11.66-12.45,11.51,0,11.5,12.45V86.79a38.24,38.24,0,0,1-1,8.63,39,39,0,0,1-3.19,8.62,14.87,14.87,0,0,1,7.18-4.79,33.89,33.89,0,0,1,10.38-1.44A38.63,38.63,0,0,1,540.62,102a30.49,30.49,0,0,1,12.22,11.57,34.07,34.07,0,0,1,4.39,17.65v38.33q0,10.71-11.18,10.7-5.43,0-8.62-2.71t-3.2-8V132.15q0-7.5-3.43-11.34T521.3,117a11.56,11.56,0,0,0-9.27,3.91q-3.34,3.92-3.35,11.26Z"/><path d="M603.07,180.22q-16,0-24.92-7.42a23.86,23.86,0,0,1-8.94-19.25q0-13.89,11.74-20.12t34.42-4.31q-1.12-7.35-4.63-10a13.78,13.78,0,0,0-8.47-2.63,45,45,0,0,0-6.63.4c-1.76.27-3.38.56-4.87.88a26.29,26.29,0,0,1-5.43.48,13.43,13.43,0,0,1-6.87-1.52q-2.55-1.51-2.55-6.15a10.29,10.29,0,0,1,5.67-9.66q5.65-3.12,18-3.12,19.49,0,28.91,11.1t9.43,29.63q0,21.41-7.75,31.54T603.07,180.22Zm-10.86-26.67q0,9.1,12.3,9.11a11.49,11.49,0,0,0,6.23-1.44c1.48-1,2.58-2.88,3.27-5.75a78.61,78.61,0,0,0,1.52-12.94,4.33,4.33,0,0,1-2.08,1.12,10.2,10.2,0,0,1-2.56.32q-10.53,0-14.61,2T592.21,153.55Z"/><path d="M664.72,180.22q-11.51,0-11.5-10.86V131q0-15.33,9.82-24.27t26-9q16.14,0,26,9T724.77,131v38.33q0,10.88-11.5,10.86t-11.5-10.86V132.31q0-7.5-3.35-11.42T689,117q-6.06,0-9.42,3.91t-3.35,11.42v37.05Q676.22,180.24,664.72,180.22Z"/><path d="M754.16,180.22q-11.82,0-11.82-10.7V76.09c0-3.72.9-6.44,2.71-8.14s4.69-2.56,8.63-2.56q11.66,0,11.66,10.7v93.43c0,3.63-.88,6.31-2.64,8.07S758.09,180.22,754.16,180.22Z"/><path d="M810.21,169.52q0,10.71-11.18,10.7-5.43,0-8.62-2.71t-3.19-8V106.28q0-22.05,8.94-31.47t28-9.42q19.49,0,28.75,9.58t9.26,31.31v63.24q0,10.71-11.18,10.7-5.43,0-8.62-2.71t-3.2-8V131a33.18,33.18,0,0,1-6.63,4.64,17.62,17.62,0,0,1-8.38,1.91q-7,0-10.46,2.56t-3.44,9.1Zm-1-46.79a17.92,17.92,0,0,1,6.15-4,23.36,23.36,0,0,1,8.7-1.44,35,35,0,0,0,9.34-1,6.88,6.88,0,0,0,4.56-3.67,19.53,19.53,0,0,0,1.27-8q0-11.82-3.35-16.21t-12-4.39q-8,0-10.94,4.55t-3,16.69c0,4.15-.06,7.67-.16,10.54A49.09,49.09,0,0,1,809.26,122.73Z"/><path d="M135.9,119.84c-28.39,9.67-42.16,23.43-51.83,51.82-3.86,11.32-19.9,11.32-23.76,0-9.67-28.39-23.43-42.15-51.82-51.82-11.32-3.86-11.32-19.9,0-23.76,28.39-9.67,42.15-23.44,51.82-51.83,3.86-11.31,19.9-11.31,23.76,0,9.67,28.39,23.44,42.16,51.83,51.83C147.21,99.94,147.21,116,135.9,119.84Z"/><path d="M209.18,153.4c-9.72,4.47-15.78,10.53-20.25,20.25a10.44,10.44,0,0,1-19,0c-4.47-9.72-10.53-15.78-20.25-20.25a10.44,10.44,0,0,1,0-19c9.72-4.47,15.78-10.53,20.25-20.25a10.44,10.44,0,0,1,19,0c4.47,9.72,10.53,15.78,20.25,20.25A10.44,10.44,0,0,1,209.18,153.4Z"/><circle cx="179.42" cy="85.51" r="13.51"/><circle cx="72.19" cy="13.51" r="13.51"/></g></g></svg>