<svg xmlns="http://www.w3.org/2000/svg" viewBox="0 0 215.31 180.15"><g id="Camada_2" data-name="Camada 2"><g id="Camada_1-2" data-name="Camada 1"><path d="M135.9,119.84c-28.39,9.67-42.16,23.43-51.83,51.82-3.86,11.32-19.9,11.32-23.76,0-9.67-28.39-23.43-42.15-51.82-51.82-11.32-3.86-11.32-19.9,0-23.76,28.39-9.67,42.15-23.44,51.82-51.83,3.86-11.31,19.9-11.31,23.76,0,9.67,28.39,23.44,42.16,51.83,51.83C147.21,99.94,147.21,116,135.9,119.84Z"/><path d="M209.18,153.4c-9.72,4.47-15.78,10.53-20.25,20.25a10.44,10.44,0,0,1-19,0c-4.47-9.72-10.53-15.78-20.25-20.25a10.44,10.44,0,0,1,0-19c9.72-4.47,15.78-10.53,20.25-20.25a10.44,10.44,0,0,1,19,0c4.47,9.72,10.53,15.78,20.25,20.25A10.44,10.44,0,0,1,209.18,153.4Z"/><circle cx="179.42" cy="85.51" r="13.51"/><circle cx="72.19" cy="13.51" r="13.51"/></g></g></svg>