<svg xmlns="http://www.w3.org/2000/svg" viewBox="0 0 215.31 180.15"><defs><style>.cls-1{fill:#fefbf3;}</style></defs><g id="Camada_2" data-name="Camada 2"><g id="Camada_1-2" data-name="Camada 1"><path class="cls-1" d="M135.9,96.08c-28.39-9.67-42.16-23.44-51.83-51.83-3.86-11.31-19.9-11.31-23.76,0C50.64,72.64,36.88,86.41,8.49,96.08c-11.32,3.86-11.32,19.9,0,23.76,28.39,9.67,42.15,23.43,51.82,51.82,3.86,11.32,19.9,11.32,23.76,0,9.67-28.39,23.44-42.15,51.83-51.82C147.21,116,147.21,99.94,135.9,96.08Zm73.28,38.3c-9.72-4.47-15.78-10.53-20.25-20.25a10.44,10.44,0,0,0-19,0c-4.47,9.72-10.53,15.78-20.25,20.25a10.44,10.44,0,0,0,0,19c9.72,4.47,15.78,10.53,20.25,20.25a10.44,10.44,0,0,0,19,0c4.47-9.72,10.53-15.78,20.25-20.25A10.44,10.44,0,0,0,209.18,134.38ZM179.42,99A13.52,13.52,0,1,0,165.9,85.51,13.51,13.51,0,0,0,179.42,99ZM72.19,27A13.52,13.52,0,1,0,58.68,13.51,13.52,13.52,0,0,0,72.19,27Z"/></g></g></svg>