<svg width="932" height="197" viewBox="0 0 932 197" fill="none" xmlns="http://www.w3.org/2000/svg">
<path fill-rule="evenodd" clip-rule="evenodd" d="M773.241 38.4216C775.859 32.7296 779.407 29.1808 785.099 26.5632C786.167 26.0768 787.072 25.2938 787.706 24.3073C788.341 23.3209 788.678 22.1728 788.678 21C788.678 19.8272 788.341 18.6791 787.706 17.6927C787.072 16.7063 786.167 15.9232 785.099 15.4368C779.407 12.8192 775.859 9.27042 773.241 3.57838C772.755 2.51114 771.972 1.60632 770.985 0.971836C769.999 0.337357 768.851 0 767.678 0C766.505 0 765.357 0.337357 764.371 0.971836C763.384 1.60632 762.601 2.51114 762.115 3.57838C759.497 9.27042 755.948 12.8192 750.256 15.4368C749.189 15.9232 748.284 16.7063 747.65 17.6927C747.015 18.6791 746.678 19.8272 746.678 21C746.678 22.1728 747.015 23.3209 747.65 24.3073C748.284 25.2938 749.189 26.0768 750.256 26.5632C755.948 29.1808 759.497 32.7296 762.115 38.4216C762.601 39.4889 763.384 40.3937 764.371 41.0282C765.357 41.6626 766.505 42 767.678 42C768.851 42 769.999 41.6626 770.985 41.0282C771.972 40.3937 772.755 39.4889 773.241 38.4216ZM400.146 180.84C400.146 191.56 394.546 196.92 383.346 196.92C377.906 196.92 373.586 195.56 370.386 192.84C367.186 190.12 365.586 186.12 365.586 180.84V30.84C365.586 18.36 371.426 12.12 383.106 12.12C394.626 12.12 400.386 18.36 400.386 30.84V56.52C400.386 61 399.906 65.32 398.946 69.48C397.986 73.64 396.386 77.96 394.146 82.44C396.866 79.08 400.466 76.68 404.946 75.24C409.426 73.8 414.626 73.08 420.546 73.08C431.106 73.08 440.306 75.16 448.146 79.32C455.986 83.48 462.066 89.32 466.386 96.84C470.866 104.2 473.106 113 473.106 123.24V180.84C473.106 191.56 467.506 196.92 456.306 196.92C450.866 196.92 446.546 195.56 443.346 192.84C440.146 190.12 438.546 186.12 438.546 180.84V124.68C438.546 117.16 436.786 111.48 433.266 107.64C429.906 103.8 425.186 101.88 419.106 101.88C413.186 101.88 408.546 103.88 405.186 107.88C401.826 111.72 400.146 117.32 400.146 124.68V180.84ZM751.434 40.44C751.434 39.5009 752.464 38.9754 753.217 39.5361C756.716 42.1401 759.268 45.4493 761.32 49.9104C761.876 51.1301 762.771 52.1642 763.898 52.8893C765.025 53.6145 766.337 54 767.678 54C769.018 54 770.33 53.6145 771.458 52.8893C772.585 52.1642 773.48 51.1301 774.036 49.9104C776.261 45.0708 779.076 41.5869 783.05 38.8883C784.334 38.0167 785.994 38.8885 785.994 40.44V180.84C785.994 186.28 784.634 190.36 781.914 193.08C779.354 195.64 775.114 196.92 769.194 196.92C757.354 196.92 751.434 191.56 751.434 180.84V40.44ZM3.12 191.4C5.2 193.8 7.76 195 10.8 195H59.76C80.24 195 95.36 190.84 105.12 182.52C115.04 174.2 120 162.04 120 146.04C120 135 118.24 126.36 114.72 120.12C111.36 113.88 105.76 109 97.92 105.48C102.88 102.6 106.56 98.36 108.96 92.76C111.52 87.16 112.8 81 112.8 74.28C112.8 57.64 108.16 45.16 98.88 36.84C89.6 28.52 76.56 24.36 59.76 24.36C47.12 24.36 36.88 25.96 29.04 29.16C21.2 32.36 15.12 36.52 10.8 41.64C6.64 46.6 3.76 51.96 2.16 57.72C0.72 63.48 0 69 0 74.28V182.28C0 185.96 1.04 189 3.12 191.4ZM42.96 95.16C38.32 96.6 34.96 98.6 32.88 101.16C33.36 98.6 33.68 96.2 33.84 93.96C34.16 91.72 34.32 89.16 34.32 86.28C34.48 83.24 34.56 79.24 34.56 74.28C34.56 66.12 36.4 60.36 40.08 57C43.92 53.64 50.48 51.96 59.76 51.96C66.32 51.96 71.2 53.72 74.4 57.24C77.76 60.6 79.44 66.28 79.44 74.28C79.44 81.16 78 86.04 75.12 88.92C72.4 91.64 67.28 93 59.76 93C53.36 93 47.76 93.72 42.96 95.16ZM59.76 167.16H34.56V146.04C34.56 138.36 35.28 132.44 36.72 128.28C38.16 124.12 40.72 121.24 44.4 119.64C48.08 117.88 53.2 117 59.76 117C69.04 117 75.6 119.24 79.44 123.72C83.44 128.2 85.44 135.64 85.44 146.04C85.44 153.4 83.52 158.76 79.68 162.12C76 165.48 69.36 167.16 59.76 167.16ZM200.501 196.92C184.501 196.92 171.941 194.28 162.821 189C153.861 183.72 147.461 176.44 143.621 167.16C139.941 157.88 138.101 147.24 138.101 135.24C138.101 113.16 142.981 97.32 152.741 87.72C162.501 77.96 175.621 73.08 192.101 73.08C202.021 73.08 210.821 74.76 218.501 78.12C226.181 81.48 232.181 86.28 236.501 92.52C240.821 98.6 242.981 106.04 242.981 114.84C242.981 140.44 224.741 153.24 188.261 153.24H174.341C175.621 158.2 177.701 162.12 180.581 165C183.621 167.72 188.901 169.08 196.421 169.08C200.581 169.08 203.941 168.84 206.501 168.36C209.061 167.88 211.461 167.4 213.701 166.92C216.101 166.44 218.821 166.2 221.861 166.2C226.181 166.2 229.621 167 232.181 168.6C234.741 170.04 236.021 173.08 236.021 177.72C236.021 184.28 233.141 189.16 227.381 192.36C221.781 195.4 212.821 196.92 200.501 196.92ZM172.661 135.48C173.941 133.72 175.381 132.6 176.981 132.12C178.581 131.48 181.061 131.16 184.421 131.16C193.861 131.16 200.341 130.28 203.861 128.52C207.541 126.6 209.381 123.24 209.381 118.44C209.381 112.36 207.701 107.72 204.341 104.52C200.981 101.16 196.741 99.48 191.621 99.48C185.701 99.48 181.061 101.96 177.701 106.92C174.341 111.88 172.661 121.4 172.661 135.48ZM315.54 196.92C300.66 196.92 289.62 193.4 282.42 186.36C275.38 179.32 271.86 168.52 271.86 153.96V104.04H265.62C254.74 104.04 249.3 99.16 249.3 89.4C249.3 79.8 254.74 75 265.62 75H271.86V49.08C271.86 43.8 273.46 39.48 276.66 36.12C280.02 32.76 284.34 31.08 289.62 31.08C294.74 31.08 298.82 32.68 301.86 35.88C304.9 38.92 306.42 43.16 306.42 48.6V60.36C306.42 66.28 305.46 71.16 303.54 75H326.34C337.22 75 342.66 79.8 342.66 89.4C342.66 99.16 337.22 104.04 326.34 104.04H306.42V154.68C306.42 159.48 306.98 162.92 308.1 165C309.22 166.92 311.06 167.88 313.62 167.88C316.98 167.88 319.46 167.64 321.06 167.16C322.82 166.52 324.98 166.2 327.54 166.2C331.86 166.2 335.3 167 337.86 168.6C340.42 170.04 341.7 173.08 341.7 177.72C341.7 184.28 339.62 189.16 335.46 192.36C331.3 195.4 324.66 196.92 315.54 196.92ZM504.705 185.88C513.665 193.24 526.145 196.92 542.145 196.92C561.505 196.92 575.025 191.88 582.705 181.8C590.545 171.56 594.465 155.72 594.465 134.28C594.465 115.72 589.745 100.92 580.305 89.88C570.865 78.68 556.385 73.08 536.865 73.08C524.545 73.08 515.505 74.68 509.745 77.88C504.145 80.92 501.345 85.72 501.345 92.28C501.345 96.92 502.625 100.04 505.185 101.64C507.745 103.08 511.185 103.8 515.505 103.8C518.705 103.8 521.425 103.56 523.665 103.08C525.905 102.6 528.305 102.2 530.865 101.88C533.585 101.4 536.945 101.16 540.945 101.16C545.905 101.16 550.145 102.52 553.665 105.24C557.185 107.8 559.505 112.76 560.625 120.12C537.905 118.2 520.625 120.36 508.785 126.6C497.105 132.84 491.265 142.92 491.265 156.84C491.265 168.68 495.745 178.36 504.705 185.88ZM544.305 170.52C531.985 170.52 525.825 165.96 525.825 156.84C525.825 151.24 527.825 147.48 531.825 145.56C535.985 143.48 543.345 142.44 553.905 142.44C555.185 142.44 556.465 142.28 557.745 141.96C559.025 141.64 560.065 141.08 560.865 140.28C560.385 148.92 559.585 155.4 558.465 159.72C557.505 164.04 555.905 166.92 553.665 168.36C551.425 169.8 548.305 170.52 544.305 170.52ZM617.544 180.6C617.544 191.48 623.304 196.92 634.824 196.92C646.344 196.92 652.104 191.48 652.104 180.6V124.92C652.104 117.4 653.784 111.72 657.144 107.88C660.504 103.88 665.224 101.88 671.304 101.88C677.384 101.88 682.104 103.88 685.464 107.88C688.824 111.72 690.504 117.4 690.504 124.92V180.6C690.504 191.48 696.264 196.92 707.784 196.92C719.304 196.92 725.064 191.48 725.064 180.6V123C725.064 107.64 720.104 95.48 710.184 86.52C700.424 77.56 687.464 73.08 671.304 73.08C655.144 73.08 642.104 77.56 632.184 86.52C622.424 95.48 617.544 107.64 617.544 123V180.6ZM853.466 180.84C853.466 191.56 847.866 196.92 836.666 196.92C831.226 196.92 826.906 195.56 823.706 192.84C820.506 190.12 818.906 186.12 818.906 180.84V85.8C818.906 63.72 823.386 47.96 832.346 38.52C841.306 29.08 855.306 24.36 874.346 24.36C893.866 24.36 908.266 29.16 917.546 38.76C926.826 48.36 931.466 64.04 931.466 85.8V180.84C931.466 191.56 925.866 196.92 914.666 196.92C909.226 196.92 904.906 195.56 901.706 192.84C898.506 190.12 896.906 186.12 896.906 180.84V123C893.866 125.72 890.506 128.04 886.826 129.96C883.306 131.88 879.146 132.84 874.346 132.84C867.306 132.84 862.026 134.12 858.506 136.68C855.146 139.24 853.466 143.8 853.466 150.36V180.84ZM852.026 110.52C854.586 107.96 857.626 105.96 861.146 104.52C864.826 103.08 869.226 102.36 874.346 102.36C880.426 102.36 885.066 101.88 888.266 100.92C891.626 99.96 893.946 98.12 895.226 95.4C896.506 92.68 897.146 88.68 897.146 83.4C897.146 71.56 895.466 63.48 892.106 59.16C888.746 54.68 882.746 52.44 874.106 52.44C866.106 52.44 860.586 54.76 857.546 59.4C854.666 63.88 853.226 72.2 853.226 84.36C853.226 90.6 853.146 95.88 852.986 100.2C852.826 104.52 852.506 107.96 852.026 110.52Z" fill="url(#paint0_linear_54_2)"/>
<defs>
<linearGradient id="paint0_linear_54_2" x1="0" y1="20" x2="931" y2="20" gradientUnits="userSpaceOnUse">
<stop stop-color="#059669"/>
<stop offset="1" stop-color="#14B8A6"/>
</linearGradient>
</defs>
</svg>
