<svg width="266" height="336" viewBox="0 0 266 336" fill="none" xmlns="http://www.w3.org/2000/svg">
<path fill-rule="evenodd" clip-rule="evenodd" d="M51.24 336C45.2613 336 40.2267 333.637 36.136 328.911C32.0453 324.186 30 318.2 30 310.954V224.42C31.3391 226.238 33.0039 227.805 34.9205 229.038C37.9267 230.972 41.4256 232 45 232C48.5744 232 52.0733 230.972 55.0795 229.038C58.0857 227.105 60.4722 224.347 61.9545 221.094C69.9321 203.747 80.7473 192.932 98.0944 184.955C101.347 183.472 104.105 181.086 106.038 178.08C107.972 175.073 109 171.574 109 168C109 164.426 107.972 160.927 106.038 157.92C104.105 154.914 101.347 152.528 98.0944 151.045C97.3091 150.684 96.5372 150.317 95.7784 149.944C99.913 145.512 106.15 142 114.488 139.409C123.928 136.574 134.941 135.156 147.528 135.156C162.317 135.156 172.387 132.478 177.736 127.122C183.4 121.451 186.232 111.842 186.232 98.2954C186.232 82.5429 182.928 71.3587 176.32 64.7426C170.027 57.8115 160.429 54.346 147.528 54.346C129.277 54.346 116.376 57.654 108.824 64.27C101.587 70.8861 97.968 82.2278 97.968 98.2954C97.968 108.062 97.8107 115.938 97.496 121.924C97.496 127.595 97.1813 132.636 96.552 137.046C96.2726 140.963 95.745 145.128 94.9694 149.542C79.4287 141.714 69.4418 131.187 61.9545 114.906C60.4722 111.653 58.0857 108.895 55.0795 106.962C52.0733 105.028 48.5744 104 45 104C41.4256 104 37.9267 105.028 34.9205 106.962C33.0039 108.195 31.3391 109.762 30 111.58V98.2954C30 87.8987 31.416 77.0295 34.248 65.6878C37.3947 54.346 43.0587 43.7918 51.24 34.0253C59.736 23.9437 71.6933 15.7525 87.112 9.45147C102.531 3.15049 122.669 0 147.528 0C180.568 0 206.213 8.19128 224.464 24.5738C242.715 40.9564 251.84 65.5302 251.84 98.2954C251.84 111.527 249.323 123.657 244.288 134.684C239.568 145.71 232.331 154.059 222.576 159.73C237.995 166.661 249.008 176.27 255.616 188.557C262.539 200.844 266 217.857 266 239.595C266 271.1 256.245 295.044 236.736 311.426C217.541 327.809 187.805 336 147.528 336H51.24ZM97.968 281.181H147.528C166.408 281.181 179.467 277.873 186.704 271.257C194.256 264.641 198.032 254.087 198.032 239.595C198.032 219.117 194.099 204.467 186.232 195.646C178.68 186.824 165.779 182.414 147.528 182.414C134.627 182.414 124.557 184.146 117.32 187.612C110.083 190.762 105.048 196.433 102.216 204.624C99.384 212.816 97.968 224.473 97.968 239.595V281.181Z" fill="white"/>
<path d="M82.332 179.921C70.1348 185.53 62.5304 193.135 56.9211 205.332C55.8789 207.619 54.2009 209.558 52.0872 210.918C49.9734 212.277 47.5132 213 45 213C42.4868 213 40.0266 212.277 37.9128 210.918C35.7991 209.558 34.1211 207.619 33.0788 205.332C27.4696 193.135 19.8652 185.53 7.66795 179.921C5.381 178.879 3.44211 177.201 2.08251 175.087C0.722917 172.973 0 170.513 0 168C0 165.487 0.722917 163.027 2.08251 160.913C3.44211 158.799 5.381 157.121 7.66795 156.079C19.8652 150.47 27.4696 142.865 33.0788 130.668C34.1211 128.381 35.7991 126.442 37.9128 125.083C40.0266 123.723 42.4868 123 45 123C47.5132 123 49.9734 123.723 52.0872 125.083C54.2009 126.442 55.8789 128.381 56.9211 130.668C62.5304 142.865 70.1348 150.47 82.332 156.079C84.619 157.121 86.5579 158.799 87.9175 160.913C89.2771 163.027 90 165.487 90 168C90 170.513 89.2771 172.973 87.9175 175.087C86.5579 177.201 84.619 178.879 82.332 179.921Z" fill="white"/>
</svg>
